<?xml version="1.0" encoding="utf-8"?>
<!-- Generator: Adobe Illustrator 16.0.0, SVG Export Plug-In . SVG Version: 6.00 Build 0)  -->
<!DOCTYPE svg PUBLIC "-//W3C//DTD SVG 1.1//EN" "http://www.w3.org/Graphics/SVG/1.1/DTD/svg11.dtd">
<svg version="1.1" id="Layer_1" xmlns="http://www.w3.org/2000/svg" xmlns:xlink="http://www.w3.org/1999/xlink" x="0px" y="0px"
	 width="595.28px" height="841.89px" viewBox="0 0 595.28 841.89" enable-background="new 0 0 595.28 841.89" xml:space="preserve">
<g>
	<path fill="#EA8433" d="M406.234,242.573h9.082v4.236h-17.92v-45.621h17.92v4.236h-9.082V242.573z"/>
</g>
<g>
	<path fill="#00AA59" d="M335.138,218.127l7.91-4.706l4.541,7.277l-9.229,5.581l9.229,5.581l-4.541,7.333l-7.91-4.706v7.934h-8.789
		v-7.989l-7.959,4.761l-4.541-7.333l9.229-5.581l-9.229-5.581l4.541-7.332l7.959,4.76v-7.934h8.789V218.127z"/>
</g>
<g>
	<path fill="#7B64AC" d="M233.74,213.957h31.954v7.666H233.74V213.957z M233.872,227.238h31.69v7.666h-31.69V227.238z"/>
</g>
<g>
	<path fill="#FCD15D" d="M155.821,228.264h-19.238v-7.617h19.238v-19.287h8.789v19.287h19.238v7.617H164.61v19.287h-8.789V228.264z"
		/>
</g>
<g>
	<path fill="#D25D64" d="M87.884,247.227h-1.813c-1.824,0-3.4-0.122-4.729-0.366c-1.33-0.245-2.483-0.836-3.46-1.774
		c-0.978-0.938-1.593-2.046-1.845-3.323c-0.253-1.277-0.379-3.146-0.379-5.605c0-2.459-0.121-4.281-0.362-5.463
		c-0.242-1.183-0.852-2.18-1.829-2.992c-0.978-0.812-2.521-1.234-4.63-1.266v-3.855c2.109-0.031,3.652-0.453,4.63-1.266
		c0.977-0.812,1.587-1.809,1.829-2.992c0.241-1.183,0.362-3.004,0.362-5.463c0-2.46,0.126-4.328,0.379-5.605
		c0.252-1.277,0.868-2.385,1.845-3.323c0.978-0.938,2.131-1.529,3.46-1.773c1.329-0.245,2.905-0.367,4.729-0.367h1.813v3.689h-1.021
		c-2.285,0-3.686,0.434-4.202,1.301c-0.516,0.868-0.774,3.209-0.774,7.024c0,3.422-0.626,5.921-1.878,7.498
		c-1.252,1.577-3.152,2.649-5.701,3.217c2.548,0.552,4.449,1.616,5.701,3.193c1.252,1.577,1.878,4.076,1.878,7.498
		c0,3.815,0.258,6.157,0.774,7.024c0.516,0.867,1.917,1.301,4.202,1.301h1.021V247.227z"/>
</g>
<g>
	<path fill="#D35C64" d="M489.38,234.593h-5.42l-3.955,12.181h-8.691l4.004-12.181h-10.889l3.906-5.743h8.887l2.734-8.303h-10.059
		l4.004-5.743h7.91l4.102-12.583h8.691l-4.15,12.583h5.42l4.102-12.583h8.691l-4.15,12.583h9.961l-4.004,5.743h-7.813l-2.734,8.303
		h9.033l-3.955,5.743h-6.982l-3.955,12.181h-8.691L489.38,234.593z M485.864,228.851h5.42l2.734-8.303h-5.42L485.864,228.851z"/>
</g>
</svg>
