<?xml version="1.0" encoding="utf-8"?>
<!-- Generator: Adobe Illustrator 16.0.0, SVG Export Plug-In . SVG Version: 6.00 Build 0)  -->
<!DOCTYPE svg PUBLIC "-//W3C//DTD SVG 1.1//EN" "http://www.w3.org/Graphics/SVG/1.1/DTD/svg11.dtd">
<svg version="1.1" id="Layer_1" xmlns="http://www.w3.org/2000/svg" xmlns:xlink="http://www.w3.org/1999/xlink" x="0px" y="0px"
	 width="841.891px" height="39.685px" viewBox="-123.305 124.28 841.891 39.685"
	 enable-background="new -123.305 124.28 841.891 39.685" xml:space="preserve">
<g>
	<path fill="#EA8433" d="M565.91,155.577h5.93v2.766H560.14v-29.783h11.699v2.766h-5.93V155.577z"/>
</g>
<g>
	<path fill="#00AA59" d="M389.978,135.426l7.762-4.617l4.455,7.14l-9.055,5.477l9.055,5.475l-4.455,7.195l-7.762-4.617v7.783h-8.623
		v-7.837l-7.809,4.671l-4.455-7.195l9.055-5.475l-9.055-5.477l4.455-7.193l7.809,4.67v-7.783h8.623V135.426z"/>
</g>
<g>
	<path fill="#7B64AC" d="M200.319,132.977h31.954v7.666h-31.954V132.977z M200.451,146.259h31.689v7.666h-31.689V146.259
		L200.451,146.259z"/>
</g>
<g>
	<path fill="#FCD15D" d="M30.113,145.982H17.329v-5.063h12.785v-12.817h5.841v12.817h12.785v5.063H35.954V158.8h-5.841V145.982z"/>
</g>
<g>
	<path fill="#D25D64" d="M-104.285,163.965h-1.519c-1.527,0-2.848-0.102-3.961-0.307c-1.113-0.206-2.08-0.7-2.898-1.486
		c-0.819-0.785-1.334-1.714-1.545-2.783c-0.212-1.07-0.317-2.635-0.317-4.695s-0.102-3.586-0.304-4.576s-0.713-1.825-1.532-2.506
		c-0.819-0.68-2.112-1.033-3.878-1.06v-3.229c1.766-0.025,3.059-0.379,3.878-1.06c0.818-0.681,1.33-1.516,1.532-2.506
		c0.202-0.99,0.304-2.516,0.304-4.576s0.105-3.625,0.317-4.695c0.211-1.069,0.727-1.998,1.545-2.783
		c0.819-0.786,1.785-1.281,2.898-1.485c1.113-0.206,2.434-0.308,3.961-0.308h1.519V129h-0.855c-1.914,0-3.087,0.363-3.52,1.089
		c-0.432,0.727-0.648,2.688-0.648,5.884c0,2.866-0.524,4.959-1.573,6.28c-1.049,1.32-2.64,2.218-4.775,2.694
		c2.134,0.462,3.726,1.354,4.775,2.674c1.049,1.321,1.573,3.414,1.573,6.28c0,3.196,0.216,5.157,0.648,5.884
		c0.432,0.726,1.606,1.089,3.52,1.089h0.855V163.965z"/>
</g>
<g>
	<path fill="#D35C64" d="M703.685,149.445h-3.217l-2.35,7.231h-5.16l2.377-7.231h-6.463l2.318-3.409h5.275l1.623-4.93h-5.971
		l2.377-3.41h4.695l2.436-7.47h5.16l-2.463,7.47h3.217l2.436-7.47h5.16l-2.465,7.47h5.914l-2.377,3.41h-4.639l-1.623,4.93h5.363
		l-2.35,3.409h-4.145l-2.348,7.231h-5.16L703.685,149.445z M701.597,146.035h3.219l1.621-4.93h-3.217L701.597,146.035z"/>
</g>
</svg>
